<?xml version="1.0" encoding="utf-8"?>
<!DOCTYPE svg PUBLIC "-//W3C//DTD SVG 20010904//EN" "http://www.w3.org/TR/2001/REC-SVG-20010904/DTD/svg10.dtd">
<svg version="1.0" xmlns="http://www.w3.org/2000/svg" width="500px" height="500px" viewBox="0 0 500 500" preserveAspectRatio="xMidYMid meet">
 <g fill="#ffffff">
  <path d="M0 250 l0 -250 250 0 250 0 0 250 0 250 -250 0 -250 0 0 -250z m126.90 30.65 l25.60 -0.30 0 -31.55 0 -31.55 -15.90 15.90 c-14.25 14.25 -16 15.85 -17.45 15.85 l-1.65 0 -0.10 -15.50 -0.15 -15.50 -31.50 31.50 -31.50 31.50 23.55 0 c12.95 0 35.05 -0.15 49.10 -0.35z m66.85 -3.05 c6.10 -3.10 7.20 -8.45 2.55 -12.40 -1.40 -1.20 -3.45 -2.20 -6.75 -3.20 -6.10 -1.90 -7.05 -2.80 -7.05 -6.50 0 -1.55 0.25 -3.05 0.60 -3.40 0.35 -0.35 2.05 -0.60 4 -0.60 3 0 3.60 0.15 4.65 1.25 0.70 0.65 1.25 1.55 1.25 2 0 0.55 0.60 0.75 2.50 0.75 1.40 0 2.50 -0.20 2.50 -0.45 0 -0.90 -2.35 -3.85 -3.95 -4.90 -4.85 -3.30 -11.55 -2.40 -15.40 2.05 -2.15 2.40 -2.50 4.30 -1.20 6.95 1.30 2.70 4.05 4.50 9.30 6.10 5.75 1.75 6.75 2.65 6.75 5.95 0 3.80 -1 4.55 -5.85 4.55 l-3.75 0 -1.85 -2.10 c-1.60 -1.90 -2.10 -2.15 -3.95 -2.15 -2.35 0 -2.35 0 -1.40 1.90 2.60 4.95 11.35 7.15 17.05 4.20z m26.90 0.70 c8.40 -3 10.85 -13.15 4.60 -19.15 -3.05 -2.90 -6.75 -4.05 -10.50 -3.30 -7.95 1.70 -11.95 9.55 -8.45 16.55 2 4.05 6 6.55 10.45 6.55 1.10 0 2.85 -0.30 3.90 -0.65z m23.25 -0.90 c0.15 -1.10 -0.05 -1.40 -0.75 -1.40 -2.05 0 -2.15 -0.60 -2.15 -15.35 l0 -14.15 -2.75 0 -2.75 0 0 14.05 c0 11.90 0.10 14.30 0.80 15.75 0.90 1.85 2.75 2.70 5.70 2.55 1.50 -0.10 1.75 -0.30 1.90 -1.45z m17.50 0.30 l1.35 -0.95 -1.25 -0.15 c-3.35 -0.35 -4.90 -1.10 -5.45 -2.70 -0.30 -0.85 -0.55 -5.10 -0.55 -9.70 l0 -8.20 -2.75 0 -2.75 0 0 8.20 c0 4.60 0.25 8.85 0.55 9.65 1.70 4.50 7.05 6.40 10.85 3.85z m31.60 0.15 c0 -0.95 -0.40 -1.25 -2.10 -1.65 -2.70 -0.60 -2.80 -0.95 -2.85 -10.30 l-0.05 -7.40 2.75 0 c2.35 0 2.75 -0.15 2.75 -0.95 0 -0.95 -1.70 -1.55 -4.30 -1.55 -1.15 0 -1.20 -0.15 -1.20 -3.25 l0 -3.25 -2.75 0 -2.70 0 -0.15 3.40 -0.15 3.35 -1.85 0.15 c-1.50 0.15 -1.90 0.35 -1.90 1.15 0 0.75 0.35 0.95 1.95 0.95 l1.95 0 0.20 8.40 c0.10 5.60 0.40 8.75 0.85 9.50 0.90 1.65 3.30 2.55 6.70 2.60 2.65 0 2.85 -0.10 2.85 -1.15z m37.10 -0.45 c2.75 -1.50 5.15 -4.70 5.90 -7.85 1.30 -5.50 -2.35 -11.50 -8.10 -13.30 -3.55 -1.15 -6.40 -0.70 -9.95 1.40 -8.25 4.95 -6.80 17.20 2.50 20.70 2.55 0.95 7.05 0.50 9.65 -0.95z m56.75 0.85 c4.35 -1.30 6.55 -4.85 4.80 -7.75 -1.15 -2 -3.05 -3.15 -7.30 -4.45 -5.40 -1.65 -5.40 -1.65 -5.25 -4.95 0.15 -2.55 0.30 -2.90 1.45 -3.30 2.10 -0.70 4.90 0.05 5.45 1.50 0.40 1.05 0.80 1.20 2.75 1.20 2.10 0 2.25 -0.10 1.75 -0.95 -0.70 -1.40 -2.90 -2.85 -5.40 -3.55 -4.80 -1.45 -11.60 2.05 -11.60 6 0 2.65 2.90 5 7.80 6.45 5.05 1.45 5.70 2.05 5.70 5.15 0 2.85 -0.40 3.15 -4.45 3.15 -2.40 0 -2.80 -0.15 -4.05 -1.65 -1.25 -1.50 -1.60 -1.65 -3.55 -1.50 l-2.20 0.15 2.15 2.10 c3.15 3.15 6.95 3.90 11.95 2.40z m-114.35 -11 l0 -11.25 -2.75 0 -2.75 0 0 8.30 c0 5.25 -0.20 8.65 -0.55 9.35 -0.45 0.80 -0.45 1.10 0 1.25 0.30 0.10 0.55 0.95 0.55 1.90 l0 1.70 2.75 0 2.75 0 0 -11.25z m33 0 l0 -11.25 -2.75 0 -2.75 0 0 11.25 0 11.25 2.75 0 2.75 0 0 -11.25z m43.50 3.65 c0.05 -5.05 0.25 -8.30 0.70 -9.50 0.60 -1.60 0.60 -1.90 0 -1.90 -0.45 0 -0.70 -0.60 -0.70 -1.75 l0 -1.75 -2.75 0 -2.75 0 0 11.25 0 11.25 2.75 0 2.75 0 0 -7.60z m16.90 -1.35 c-0.15 -9.80 -0.30 -10.30 -3.60 -12.75 -1.85 -1.40 -5.55 -1.40 -7.55 -0.05 l-1.50 1 1.25 0.15 c3.25 0.45 4.85 1.15 5.40 2.35 0.40 0.85 0.60 4.40 0.60 9.75 l0 8.50 2.80 0 2.75 0 -0.15 -8.95z m-62 -19.35 c1.35 -0.95 1.40 -2.25 0.10 -3.45 -0.85 -0.75 -1.20 -0.80 -2.25 -0.35 -1.85 0.85 -2.05 1.95 -0.75 3.40 1.40 1.40 1.45 1.45 2.90 0.40z m50.65 -3.25 c2.15 -0.75 4.20 -2.60 5.70 -5.20 1 -1.70 10.75 -25.75 10.75 -26.50 0 -0.15 -1.10 -0.25 -2.45 -0.25 -2.85 0 -2.35 -0.95 -5.30 9.75 -1 3.60 -1.90 6.90 -2.05 7.40 -0.20 0.60 -0.80 0.85 -1.90 0.85 l-1.70 0 -2.50 -8.85 -2.50 -8.90 -2.60 -0.15 c-2.35 -0.15 -2.60 -0.05 -2.40 0.75 0.15 0.50 2.20 5.80 4.60 11.80 2.70 6.85 4.30 11.65 4.30 12.80 0 2.50 -1.70 4.10 -4.70 4.40 -1.75 0.20 -2.30 0.50 -2.30 1.15 0 0.45 0.15 1 0.35 1.15 0.50 0.55 2.80 0.40 4.70 -0.20z m-121.45 -9.45 c1.05 -0.30 2.10 -0.95 2.35 -1.40 0.40 -0.75 0.20 -0.85 -1.65 -0.70 -2.90 0.25 -5.55 -0.95 -6.60 -3 -1.35 -2.50 -1.30 -10.05 0.10 -12.40 1.20 -2.10 3.95 -3.20 7.05 -2.85 1.95 0.20 2.05 0.15 1.65 -0.70 -0.65 -1.20 -3.95 -2.15 -6.15 -1.75 -4.30 0.80 -8.30 5.25 -9.10 10.20 -0.75 4.70 2 10.35 5.90 12.15 2.40 1.05 3.80 1.15 6.45 0.45z m31.75 -0.80 l1.40 -0.90 -2.45 -0.40 c-4.35 -0.60 -4.55 -1 -4.70 -11.40 l-0.15 -9 -2.75 0 -2.75 0 0.15 8.95 c0.15 9.95 0.30 10.50 3.95 12.95 2 1.40 5.05 1.30 7.30 -0.20z m32.30 0.75 c2.45 -0.65 5.20 -3.10 5.60 -4.95 0.40 -1.85 -0.90 -4.20 -3 -5.50 -0.80 -0.50 -3 -1.35 -4.90 -1.95 -5.40 -1.65 -5.40 -1.65 -5.25 -4.95 0.15 -2.55 0.30 -2.90 1.45 -3.30 2.10 -0.70 4.90 0.05 5.45 1.50 0.40 1.05 0.80 1.20 2.75 1.20 2.10 0 2.25 -0.10 1.75 -0.95 -0.70 -1.40 -2.90 -2.85 -5.40 -3.55 -4.80 -1.45 -11.60 2.05 -11.60 6 0 2.65 2.90 5 7.80 6.45 5.05 1.45 5.70 2.05 5.70 5.15 0 2.85 -0.40 3.15 -4.45 3.15 -2.40 0 -2.80 -0.15 -4.05 -1.65 -1.25 -1.50 -1.60 -1.65 -3.55 -1.50 l-2.20 0.15 2.05 2.05 c3 2.95 7.30 3.95 11.85 2.65z m24.85 -0.70 c0 -1.05 -0.25 -1.25 -1.40 -1.25 -0.75 0 -1.90 -0.35 -2.50 -0.80 -1.05 -0.75 -1.10 -1.05 -1.10 -9 l0 -8.20 2.75 0 c2.35 0 2.75 -0.15 2.75 -0.95 0 -0.95 -1.70 -1.55 -4.30 -1.55 -1.05 0 -1.15 -0.25 -1.30 -3.10 l-0.15 -3.15 -2.60 -0.15 -2.60 -0.15 -0.15 3.40 -0.15 3.40 -2.15 0.15 c-1.70 0.15 -2.15 0.35 -2 1 0.10 0.60 0.80 0.95 2.15 1.10 l2 0.25 0.25 8.55 c0.25 9.30 0.40 9.75 3.25 11 0.80 0.35 2.80 0.65 4.40 0.70 2.70 0 2.85 -0.05 2.85 -1.25z m-139 -14.25 l0 -15 -2.75 0 -2.75 0 0 15 0 15 2.75 0 2.75 0 0 -15z m13.50 8.35 c0 -4.10 0.25 -7.65 0.70 -9.35 0.60 -2.40 0.60 -2.80 0 -3.15 -0.40 -0.20 -0.70 -1.05 -0.70 -1.85 0 -1.50 -0.05 -1.50 -2.75 -1.50 l-2.75 0 0 11.25 0 11.25 2.75 0 2.75 0 0 -6.65z m17.40 -1.70 c-0.15 -7.20 -0.30 -8.70 -1.15 -10.40 -1.10 -2.20 -4.15 -4.25 -6.30 -4.25 -1.55 0 -4.95 1.35 -4.95 1.95 0 0.25 1.10 0.55 2.50 0.75 3.95 0.55 4.20 1.25 4.40 11.65 l0.20 8.65 2.75 0 2.75 0 -0.20 -8.35z m31.60 -7.65 l0 -16 -2.75 0 -2.75 0 0 6.25 0 6.25 -1.30 0 c-1.20 0 -1.20 0.05 -0.45 0.85 1.35 1.35 1.75 3 1.75 7.60 0 3.25 -0.25 4.80 -0.95 6.20 -0.90 1.80 -0.90 1.85 0 1.85 0.70 0 0.95 0.35 0.95 1.50 0 1.50 0.05 1.50 2.75 1.50 l2.75 0 0 -16z m30.50 4.75 l0 -11.25 -2.75 0 -2.75 0 0 8.30 c0 5.25 -0.20 8.65 -0.55 9.35 -0.45 0.80 -0.45 1.10 0 1.25 0.30 0.10 0.55 0.95 0.55 1.90 l0 1.70 2.75 0 2.75 0 0 -11.25z m58.10 4.40 c0.25 -7 0.65 -8.85 2.15 -10.30 0.75 -0.80 0.70 -0.85 -0.70 -0.85 -1.50 0 -1.55 -0.05 -1.55 -2.25 l0 -2.25 -2.75 0 -2.75 0 0 11.25 0 11.25 2.70 0 2.65 0 0.25 -6.85z m8.85 -12.45 c0.10 -0.10 0 -0.95 -0.15 -1.95 l-0.35 -1.75 -1.45 0.75 c-1.35 0.70 -3 2.50 -3 3.30 0 0.30 4.55 0 4.95 -0.35z m-120.60 -22.65 c1.10 -0.55 2.65 -1.75 3.40 -2.65 l1.40 -1.65 -1.90 -0.15 c-1.60 -0.15 -2.05 0.05 -3.20 1.40 -1.55 1.90 -4.80 2.50 -7.80 1.50 -2.15 -0.70 -3.25 -2.75 -3.25 -6 l0 -2 8.75 0 8.75 0 0 -1.65 c0 -2.45 -2.35 -6.70 -4.55 -8.30 -2.85 -2.10 -6.05 -2.85 -8.80 -2.15 -5.85 1.60 -10.20 7.35 -9.50 12.65 1.10 8.20 9.50 12.70 16.70 9z m22.15 0.35 l2.25 -1.05 -2.75 -0.40 c-1.70 -0.25 -2.95 -0.70 -3.40 -1.30 -1 -1.35 -0.50 -5.15 0.85 -6.20 1.20 -1 5.90 -1.75 7.55 -1.20 1.05 0.35 1.10 0.60 0.85 3.30 -0.15 1.65 -0.55 3.30 -0.85 3.70 -0.50 0.60 -0.45 0.75 0.45 0.75 0.85 0 1.05 0.30 1.05 1.50 0 1.45 0.05 1.50 2.50 1.50 l2.50 0 0 -7.10 c-0.05 -10.25 -0.80 -12.65 -4.70 -14.60 -4.30 -2.15 -9.65 -1.30 -13 2.05 -1 1 -1.80 2 -1.80 2.25 0 0.20 1 0.40 2.25 0.40 1.60 0 2.25 -0.20 2.25 -0.70 0 -0.40 0.60 -1.20 1.40 -1.80 1.10 -0.90 1.80 -1.05 3.75 -0.85 3.30 0.30 4.05 1.20 4.10 4.75 l0 2.85 -3.55 0.30 c-4.60 0.45 -6.85 1.20 -8.95 3 -2.40 2.10 -3.05 3.95 -2.05 5.85 0.75 1.45 2.70 3.15 4.30 3.75 1.40 0.50 2.75 0.35 5 -0.75z m-61.50 -5.15 l0 -5.75 3.75 0 c5.85 0 8.50 -0.75 11 -3.20 3.70 -3.55 3.95 -7.80 0.70 -11.50 -2.45 -2.85 -4.70 -3.45 -13.30 -3.70 l-7.65 -0.20 0 15.05 0 15.05 2.75 0 2.75 0 0 -5.75z m86 2.15 c0 -4.30 0.70 -5.40 3.50 -5.40 1.75 0 2 0.25 5.05 4.50 l3.20 4.45 2.60 0.05 2.65 0 -4.25 -5.35 c-5.50 -6.95 -5.50 -7.15 -0.50 -12.60 2.05 -2.20 3.75 -4.15 3.75 -4.30 0 -0.15 -0.85 -0.25 -1.95 -0.25 -1.80 0 -2.15 0.25 -6.10 5 -3.95 4.70 -4.30 5 -6.05 5 l-1.90 0 0 -9.75 0 -9.75 -2.75 0 -2.75 0 0 16 0 16 2.75 0 2.75 0 0 -3.60z"/>
  <path d="M213.50 275.90 c-2.10 -1.15 -2.95 -3.60 -2.95 -8.65 0 -5.60 0.85 -7.65 3.60 -8.70 2.95 -1.10 6.25 -0.30 7.75 1.95 1.10 1.60 1.15 2.15 1 7.35 -0.15 5.30 -0.25 5.70 -1.45 6.90 -1.55 1.60 -5.95 2.20 -7.95 1.15z"/>
  <path d="M321.75 276.15 c-2.55 -0.65 -3.75 -3.35 -3.75 -8.55 0 -7.35 1.35 -9.35 6.30 -9.35 2.75 0 3.35 0.20 4.45 1.25 2.40 2.40 2.80 11 0.70 14.50 -1.35 2.20 -4.20 3 -7.70 2.15z"/>
  <path d="M211.50 181.30 c0 -1.65 0.30 -2.60 1.20 -3.65 1.10 -1.25 1.55 -1.40 4.25 -1.40 4.05 0.05 5.55 1.35 5.55 4.85 l0 2.40 -5.50 0 -5.50 0 0 -2.20z"/>
  <path d="M183.35 181.15 c-0.20 -0.15 -0.35 -2.65 -0.35 -5.50 l0 -5.15 5 0 c6.10 0 7 0.60 7 4.80 0 3.85 -0.60 5.05 -2.85 5.65 -2.10 0.60 -8.30 0.75 -8.80 0.20z"/>
 </g>
 <g fill="#5271ff">
  <path d="M173 301.50 c0 -4.15 0.05 -4.50 1 -4.50 0.90 0 1 0.35 1 3.15 0 3.95 0.35 4.50 2.80 4.25 1.50 -0.10 1.95 0.05 2.10 0.75 0.15 0.75 -0.25 0.85 -3.35 0.85 l-3.55 0 0 -4.50z"/>
  <path d="M181.50 301.50 c0 -4.15 0.10 -4.50 1 -4.50 0.85 0 0.95 0.40 1.10 3.65 l0.15 3.60 2.15 0.05 c2.30 0.05 2.90 0.35 2.35 1.15 -0.15 0.30 -1.75 0.55 -3.55 0.55 l-3.20 0 0 -4.50z"/>
  <path d="M190.65 304.90 c-1.35 -1.50 -1.65 -3.05 -1.05 -5.20 0.85 -3.20 5.70 -4.05 7.65 -1.35 1.35 1.80 -0.95 2.35 -2.40 0.60 -0.80 -0.95 -1 -0.95 -2 -0.30 -2 1.30 -1.50 5.85 0.60 5.85 0.50 0 1.20 -0.35 1.55 -0.75 0.80 -0.95 2.50 -1 2.50 -0.05 0 2.25 -5.10 3.10 -6.85 1.20z"/>
  <path d="M199 305 c0 -0.65 0.35 -1 1 -1 0.65 0 1 0.35 1 1 0 0.65 -0.35 1 -1 1 -0.65 0 -1 -0.35 -1 -1z"/>
  <path d="M181.10 279.60 c-3.90 -1.40 -6.30 -4.10 -7.30 -8.20 l-0.30 -1.40 4.10 0 4.10 0 1.80 2.10 c1.65 1.85 2.05 2.05 4.15 2.05 4.05 0 5.80 -2.95 3 -5.10 -0.70 -0.60 -3.15 -1.60 -5.40 -2.30 -2.20 -0.70 -5 -1.85 -6.15 -2.60 -4.70 -3.05 -5.50 -9.75 -1.70 -13.80 2.60 -2.75 4.85 -3.55 10.10 -3.60 5.15 0 7.50 0.80 9.95 3.45 1.05 1.15 3.25 6.30 2.80 6.70 -0.05 0.10 -2 0.20 -4.25 0.20 l-4.10 0.05 -0.65 -1.50 c-0.80 -1.85 -2.10 -2.65 -4.35 -2.65 -2.05 0 -2.90 0.75 -2.90 2.50 0 2.05 1.90 3.40 7.05 5 5.60 1.75 8.45 3.85 9.35 6.90 1.55 5.15 -0.20 9.15 -5.15 11.75 -2.90 1.50 -10.45 1.75 -14.15 0.45z"/>
  <path d="M211.35 279.80 c-5.10 -1.90 -8 -6.45 -8 -12.55 0 -8.25 5.15 -13.25 13.70 -13.25 9.75 0 15.55 8.20 12.70 17.90 -0.95 3.10 -2.60 5.20 -5.65 6.95 -1.90 1.15 -3 1.40 -6.55 1.50 -2.80 0.10 -4.95 -0.10 -6.20 -0.55z m8.65 -6.60 c1.10 -1.10 1.25 -1.70 1.40 -5.35 0.15 -3.65 0.05 -4.30 -1 -5.80 -1.40 -2.05 -3.20 -2.65 -5.30 -1.75 -2 0.80 -3.10 3.40 -3.10 7.15 0.10 6.40 4.20 9.35 8 5.75z"/>
  <path d="M237.20 279.95 c-3 -0.85 -3.20 -1.95 -3.20 -19.40 l0 -15.55 4.25 0 4.25 0 0 14.15 c0 14.70 0.10 15.35 2.10 15.35 0.85 0 0.95 0.35 0.80 2.90 l-0.15 2.85 -3.25 0.10 c-1.80 0.05 -3.95 -0.15 -4.80 -0.40z"/>
  <path d="M253.25 279.80 c-1.85 -0.80 -3.50 -2.60 -4.20 -4.45 -0.35 -0.85 -0.55 -5.45 -0.55 -11.15 l0 -9.70 4.25 0 4.25 0 0 8.20 c0 4.55 0.25 8.85 0.55 9.70 0.70 2 3.15 2.95 5.15 2 2.45 -1.10 2.80 -2.55 2.80 -11.65 l0 -8.25 4.25 0 4.25 0 0 12.75 0 12.75 -4.25 0 -4.25 0 0 -1.85 -0.05 -1.90 -1.05 1.45 c-0.60 0.80 -1.80 1.75 -2.70 2.10 -2.10 0.90 -6.50 0.85 -8.45 0z"/>
  <path d="M284.15 279.75 c-2.55 -1.10 -2.85 -2.15 -3.05 -11.35 l-0.20 -8.40 -1.95 0 -1.95 0 0 -2.80 0 -2.80 1.90 0.20 1.85 0.15 0.15 -3.40 0.15 -3.35 4.20 0 4.25 0 0 3.25 0 3.25 1.90 0.05 c1 0.05 2.20 0.05 2.70 0 0.65 -0.10 0.85 0.45 1 2.45 0.05 1.45 0.05 2.70 -0.05 2.80 -0.10 0.10 -1.45 0.20 -2.95 0.20 l-2.70 0 0.20 6.75 c0.10 4.10 0.35 6.90 0.70 7.25 0.30 0.35 1.45 0.70 2.55 0.85 1.80 0.25 2 0.40 2.05 1.85 0.10 3.75 0.05 3.80 -4.80 3.80 -2.55 -0.05 -5 -0.30 -5.95 -0.75z"/>
  <path d="M318.95 279.85 c-7.20 -2.70 -10.35 -11.65 -6.70 -19.10 3.70 -7.60 15.80 -9.25 22.05 -2.95 6 5.95 4.40 17.50 -2.95 21.30 -2.60 1.35 -9.65 1.75 -12.40 0.75z m7.95 -6 c1.95 -1.55 2.90 -7.65 1.70 -10.85 -1.10 -2.90 -5 -4.15 -7.05 -2.30 -2.65 2.40 -2.65 11 0.05 13.15 1.40 1.15 3.85 1.15 5.30 0z"/>
  <path d="M377.35 280 c-2.30 -0.70 -4.90 -3 -5.85 -5.15 -0.50 -1.15 -0.80 -2.25 -0.70 -2.45 0.15 -0.20 1.95 -0.40 4.05 -0.40 3.70 0 3.90 0.05 5.15 1.60 1 1.15 1.70 1.55 2.90 1.50 2 -0.05 2.60 -0.40 2.60 -1.55 0 -1.40 -1.45 -2.35 -5.50 -3.55 -6.30 -1.85 -8.95 -4.80 -8.20 -9.20 1.05 -6.35 11.95 -9.15 18.35 -4.70 1.35 0.95 2.40 2.60 3.05 4.80 0.35 1.10 0.30 1.10 -3.95 1.10 -4.05 0 -4.30 -0.05 -4.70 -1.20 -0.90 -2.25 -4.05 -1.90 -4.05 0.45 0 1.45 0.80 1.90 5.35 3.30 6.10 1.85 8.15 3.90 8.15 8.10 0 2.80 -1.60 5.25 -4.25 6.60 -2.25 1.05 -9.90 1.55 -12.40 0.75z"/>
  <path d="M298.45 279.80 c-0.10 -0.10 -0.15 -5.85 -0.05 -12.75 l0.15 -12.55 4.20 0 4.25 0 0 12.75 0 12.75 -4.15 0 c-2.30 0 -4.30 -0.10 -4.40 -0.20z"/>
  <path d="M342 267.25 l0 -12.75 4.25 0 4.25 0 0 1.90 0.05 1.85 1.05 -1.45 c1.40 -1.85 3.75 -2.80 6.85 -2.80 2.90 0 4.85 0.65 6.50 2.15 2.20 2.05 2.50 3.60 2.55 13.90 l0.10 9.70 -4.30 0.15 -4.30 0.15 0 -8.50 c0 -9.50 -0.30 -10.85 -2.70 -11.50 -2 -0.50 -3.25 -0.05 -4.55 1.65 -0.90 1.25 -1 2.25 -1.15 9.85 l-0.20 8.45 -4.20 0 -4.20 0 0 -12.75z"/>
  <path d="M299.60 251.35 c-2.85 -3 -0.90 -7.10 3.30 -7 3.60 0.10 5.40 4.40 2.85 6.90 -1.65 1.70 -4.65 1.70 -6.15 0.10z"/>
  <path d="M348.20 248.30 c-0.15 -0.35 -0.20 -1.65 -0.10 -2.85 l0.15 -2.15 2.15 -0.05 c1.60 -0.05 2.45 -0.40 3.45 -1.40 l1.35 -1.30 -5.25 -13.25 c-2.85 -7.35 -5.30 -13.30 -5.45 -13.30 -0.15 0 -0.15 1.35 -0.10 3 l0.20 3 -1.85 0 c-2.75 0 -5.05 1.30 -6.05 3.40 -0.70 1.45 -0.95 3.40 -1.05 8.60 l-0.15 6.75 -4.25 0.15 -4.25 0.15 0 -12.80 0 -12.75 4.20 0 4.25 0 0.15 2.40 0.15 2.35 1.10 -1.85 c1.80 -3.05 2.95 -3.35 10.60 -3 l6.65 0.35 2.50 8.90 c1.40 4.90 2.65 8.80 2.75 8.65 0.10 -0.10 1 -3 1.95 -6.35 0.95 -3.40 2.05 -7.40 2.45 -8.80 l0.80 -2.65 4.45 0 c2.60 0 4.50 0.20 4.50 0.50 0 0.90 -10.60 27.25 -11.75 29.25 -1.50 2.60 -3.55 4.45 -5.70 5.20 -2.45 0.80 -7.50 0.70 -7.85 -0.15z"/>
  <path d="M225.15 238.55 c-4.20 -1.95 -6.55 -7.20 -6 -13.60 0.60 -7.30 5.20 -11.90 11.90 -11.95 3.65 0 5.80 0.80 6.70 2.45 0.65 1.20 0.70 0.75 0.75 -5.05 l0 -6.40 4.25 0 4.25 0 0 17.50 0 17.50 -4.25 0 -4.25 0 0 -1.60 -0.05 -1.65 -1.10 1.40 c-2.05 2.45 -8.25 3.20 -12.20 1.40z m10.15 -5.30 c2.15 -0.90 3.20 -3.15 3.20 -7.05 0 -5.40 -2.85 -8.40 -6.80 -7.10 -2.65 0.90 -3.80 3.05 -3.80 7.10 0 3.80 1.05 6.10 3.25 7.05 2 0.90 2.05 0.90 4.15 0z"/>
  <path d="M256 238.40 c-3.65 -2.50 -3.75 -2.80 -3.90 -14.45 l-0.15 -10.45 4.25 0 4.30 0 0 8.40 c0 9.05 0.30 10.40 2.60 11.45 0.95 0.50 1.65 0.50 2.85 0.10 2.65 -0.95 3.05 -2.40 3.05 -11.70 l0 -8.25 4.25 0 c3.05 0 4.25 0.20 4.25 0.65 0.05 0.30 0.05 6 0.05 12.60 l0 12 -4.30 0.15 -4.25 0.15 0 -1.90 -0.05 -1.90 -1.05 1.45 c-1.45 1.90 -3.75 2.80 -7.30 2.80 -2.25 0 -3.35 -0.25 -4.60 -1.10z"/>
  <path d="M287.75 238.90 c-2.50 -0.85 -4.80 -2.90 -5.75 -5.05 -0.50 -1.15 -0.80 -2.25 -0.70 -2.45 0.15 -0.20 1.95 -0.40 4.05 -0.40 3.70 0 3.90 0.05 5.15 1.60 1 1.15 1.70 1.55 2.90 1.50 2 -0.05 2.60 -0.40 2.60 -1.55 0 -1.40 -1.45 -2.35 -5.50 -3.55 -6.30 -1.85 -8.95 -4.80 -8.20 -9.20 1.05 -6.35 11.95 -9.15 18.35 -4.70 1.30 0.90 3.35 4.20 3.35 5.40 0 0.30 -1.65 0.50 -4.25 0.50 -4.05 0 -4.30 -0.05 -4.70 -1.20 -0.90 -2.25 -4.05 -1.90 -4.05 0.45 0 1.45 0.65 1.85 5.95 3.50 6.10 1.95 7.95 4.25 7.40 9.15 -0.20 1.85 -0.60 2.65 -2 3.90 -0.95 0.90 -2.60 1.85 -3.70 2.15 -2.40 0.70 -8.90 0.65 -10.90 -0.05z"/>
  <path d="M313.25 238.80 c-2.85 -1.25 -3 -1.70 -3.25 -11 l-0.25 -8.55 -2 -0.25 -2 -0.25 0 -2.50 0 -2.50 2 -0.05 2 0 0.15 -3.40 0.15 -3.35 4.10 0.15 4.10 0.15 0.15 3.15 0.15 3.10 1.85 0.05 c3.45 0.10 3.35 0.05 3.50 2.85 l0.15 2.60 -2.75 0 -2.80 0 0 6.70 c0 6.40 0.05 6.80 1.10 7.50 0.60 0.45 1.75 0.80 2.50 0.80 1.35 0 1.40 0.10 1.40 2.75 l0 2.75 -4.35 0 c-2.50 -0.05 -5.05 -0.35 -5.90 -0.70z"/>
  <path d="M176 222.50 l0 -16.50 4.25 0 4.25 0 0 16.50 0 16.50 -4.25 0 -4.25 0 0 -16.50z"/>
  <path d="M189.50 226.25 l0 -12.75 4.25 0 4.25 0 0 1.45 c0 2 0.70 2.30 1.55 0.75 1.45 -2.80 7.95 -3.65 11.70 -1.55 3.55 1.95 3.95 3.55 4.15 15 l0.20 9.85 -4.25 0 -4.25 0 -0.20 -8.65 c-0.10 -7.10 -0.30 -8.90 -1 -9.95 -1.65 -2.55 -5.75 -1.85 -6.90 1.15 -0.40 1 -0.75 4.90 -0.90 9.60 l-0.20 7.85 -4.20 0 -4.20 0 0 -12.75z"/>
  <path d="M211.85 197.80 c-4.80 -1.80 -7.45 -5.65 -7.75 -11.40 -0.50 -7.95 4.35 -13.75 12.05 -14.30 8.05 -0.60 13.85 4.50 13.85 12.25 l0 3.15 -8.75 0 c-5.70 0 -8.75 0.20 -8.75 0.50 0 0.30 0.30 1.30 0.70 2.20 1.30 3.15 5.70 3.45 7.60 0.55 0.75 -1.15 1.10 -1.25 4.80 -1.25 l4 0 -0.35 1.40 c-0.45 2 -2.80 4.70 -5.25 6.05 -2.75 1.55 -9.15 2 -12.15 0.85z m9.15 -16.70 c0 -1.45 -2.20 -3.15 -4 -3.20 -1.25 -0.05 -2 0.30 -2.85 1.30 -2.05 2.40 -1.65 2.80 2.85 2.80 3.55 0 4 -0.10 4 -0.90z"/>
  <path d="M237 197.55 c-5.25 -2.75 -5.30 -9.35 -0.10 -12.90 1.85 -1.25 5.60 -2.15 8.90 -2.15 2.50 0 3 -0.60 2.25 -2.65 -0.75 -1.90 -2.80 -2.60 -4.45 -1.55 -0.65 0.45 -1.35 1.25 -1.45 1.75 -0.25 0.85 -0.75 0.95 -4.20 0.95 -3.55 0 -3.95 -0.10 -3.95 -0.95 0 -2.90 2.90 -6.10 6.60 -7.35 3.25 -1.05 8.90 -0.80 11.65 0.55 4.05 2.05 4.65 4.10 4.90 17.15 l0.10 7.60 -4.10 0 -4.15 0 0 -1.50 c0 -0.80 -0.20 -1.50 -0.50 -1.50 -0.25 0 -0.50 0.35 -0.50 0.75 0 1.15 -3.90 2.75 -6.75 2.75 -1.50 0 -3.20 -0.35 -4.25 -0.95z m9.60 -5.55 c1.45 -1.10 2.25 -3.95 1.30 -4.55 -0.65 -0.40 -3.15 -0.05 -4.55 0.65 -1.05 0.55 -1.85 2.35 -1.45 3.30 0.25 0.65 1.80 1.50 2.90 1.55 0.30 0.05 1.15 -0.40 1.80 -0.95z"/>
  <path d="M176 181.45 l0 -16.55 9.15 0.20 c7.90 0.15 9.40 0.30 11.35 1.20 6.70 3.05 8.10 11.85 2.75 17 -2.50 2.45 -5.15 3.20 -11 3.20 l-3.75 0 0 5.75 0 5.75 -4.25 0 -4.25 0 0 -16.55z m14.65 -2 c2.85 -0.75 3.85 -4.20 1.85 -6.35 -0.90 -0.95 -1.60 -1.10 -4.50 -1.10 l-3.50 0 0 3.65 c0 2.05 0.15 3.85 0.35 4 0.50 0.50 3.65 0.40 5.80 -0.20z"/>
  <path d="M262 180.50 l0 -17.55 4.30 0.15 4.30 0.15 -0.10 9.65 c0 5.25 0.15 9.60 0.35 9.60 0.25 0 2.30 -2.25 4.60 -5 l4.20 -5 4.95 0 5 0 -3.65 4 c-2.05 2.25 -4.45 4.90 -5.30 5.95 l-1.65 1.90 5.25 6.55 c2.90 3.65 5.25 6.70 5.25 6.85 0 0.15 -2.30 0.25 -5.10 0.25 l-5.15 0 -2.40 -3.40 c-4.40 -6.25 -4.10 -5.95 -5.30 -4.90 -0.90 0.80 -1.05 1.55 -1.05 4.65 l0 3.65 -4.25 0 -4.25 0 0 -17.50z"/>
 </g>
 <g fill="#748dff">
  <path d="M117 264.45 c0 -17.15 0.05 -17.85 1 -18.70 1 -0.90 1 -0.85 1 0.55 0 1.30 1.85 -0.40 17.15 -15.70 9.40 -9.40 17.25 -17.10 17.50 -17.10 0.20 0 0.30 15.45 0.25 34.30 l-0.15 34.25 -18.40 0.10 -18.35 0.10 0 -17.80z"/>
 </g>
 <g fill="#7ce6ea">
  <path d="M50.50 282.10 c0 -0.20 15.40 -15.75 34.30 -34.60 l34.25 -34.25 -0.15 18.85 -0.15 18.90 -15.75 15.75 -15.75 15.75 -18.35 0 c-10.15 0 -18.40 -0.15 -18.40 -0.40z"/>
 </g>
 <g fill="#5a87fa">
  <path d="M85 282.10 c0 -0.20 7.55 -7.90 16.75 -17.10 l16.75 -16.75 0 16.85 c0 13 0.15 16.85 0.65 17.05 0.30 0.15 -7.20 0.30 -16.75 0.30 -9.60 0.05 -17.40 -0.10 -17.40 -0.35z"/>
  <path d="M219 280 c0 -0.25 0.35 -0.50 0.75 -0.50 0.40 0 0.75 0.25 0.75 0.50 0 0.30 -0.35 0.50 -0.75 0.50 -0.40 0 -0.75 -0.20 -0.75 -0.50z"/>
  <path d="M241.50 280 c0 -0.25 0.45 -0.50 1 -0.50 0.55 0 1 0.25 1 0.50 0 0.30 -0.45 0.50 -1 0.50 -0.55 0 -1 -0.20 -1 -0.50z"/>
  <path d="M259 280 c0 -0.25 0.35 -0.50 0.75 -0.50 0.40 0 0.75 0.25 0.75 0.50 0 0.30 -0.35 0.50 -0.75 0.50 -0.40 0 -0.75 -0.20 -0.75 -0.50z"/>
  <path d="M291.50 280 c0 -0.25 0.45 -0.50 1 -0.50 0.55 0 1 0.25 1 0.50 0 0.30 -0.45 0.50 -1 0.50 -0.55 0 -1 -0.20 -1 -0.50z"/>
  <path d="M326.50 280 c0 -0.25 0.35 -0.50 0.75 -0.50 0.40 0 0.75 0.25 0.75 0.50 0 0.30 -0.35 0.50 -0.75 0.50 -0.40 0 -0.75 -0.20 -0.75 -0.50z"/>
  <path d="M384.50 280 c0 -0.25 0.35 -0.50 0.75 -0.50 0.40 0 0.75 0.25 0.75 0.50 0 0.30 -0.35 0.50 -0.75 0.50 -0.40 0 -0.75 -0.20 -0.75 -0.50z"/>
  <path d="M231.50 239 c0 -0.25 0.35 -0.50 0.75 -0.50 0.40 0 0.75 0.25 0.75 0.50 0 0.30 -0.35 0.50 -0.75 0.50 -0.40 0 -0.75 -0.20 -0.75 -0.50z"/>
  <path d="M262.50 239 c0 -0.25 0.35 -0.50 0.75 -0.50 0.40 0 0.75 0.25 0.75 0.50 0 0.30 -0.35 0.50 -0.75 0.50 -0.40 0 -0.75 -0.20 -0.75 -0.50z"/>
  <path d="M295 239 c0 -0.25 0.35 -0.50 0.75 -0.50 0.40 0 0.75 0.25 0.75 0.50 0 0.30 -0.35 0.50 -0.75 0.50 -0.40 0 -0.75 -0.20 -0.75 -0.50z"/>
  <path d="M320.50 239 c0 -0.25 0.35 -0.50 0.75 -0.50 0.40 0 0.75 0.25 0.75 0.50 0 0.30 -0.35 0.50 -0.75 0.50 -0.40 0 -0.75 -0.20 -0.75 -0.50z"/>
  <path d="M219 198 c0 -0.25 0.35 -0.50 0.75 -0.50 0.40 0 0.75 0.25 0.75 0.50 0 0.30 -0.35 0.50 -0.75 0.50 -0.40 0 -0.75 -0.20 -0.75 -0.50z"/>
  <path d="M212.50 186.90 c0 -0.50 2 -0.60 8.75 -0.50 5.10 0.10 8.75 0.35 8.75 0.60 0 0.30 -3.50 0.50 -8.75 0.50 -6.65 0 -8.75 -0.15 -8.75 -0.60z"/>
  <path d="M244 187 c0 -0.65 1 -0.65 2 0 0.60 0.40 0.45 0.50 -0.60 0.50 -0.80 0 -1.40 -0.20 -1.40 -0.50z"/>
  <path d="M184 186.15 c0 -0.40 0.65 -0.65 1.75 -0.65 0.95 0 1.75 0.20 1.75 0.45 0 0.25 -0.80 0.55 -1.75 0.65 -1.20 0.15 -1.75 0 -1.75 -0.45z"/>
  <path d="M188.50 186 c0 -0.25 0.65 -0.50 1.45 -0.50 0.85 0 1.65 0.25 1.80 0.50 0.20 0.30 -0.40 0.50 -1.45 0.50 -1 0 -1.80 -0.20 -1.80 -0.50z"/>
  <path d="M187.50 171.80 c0 -0.10 0.55 -0.30 1.25 -0.40 0.70 -0.15 1.25 -0.05 1.25 0.15 0 0.25 -0.55 0.45 -1.25 0.45 -0.70 0 -1.25 -0.10 -1.25 -0.20z"/>
 </g>
</svg>