<?xml version="1.0" encoding="iso-8859-1"?>
<!-- Generator: Adobe Illustrator 19.0.0, SVG Export Plug-In . SVG Version: 6.00 Build 0)  -->
<svg version="1.1" id="Layer_1" xmlns="http://www.w3.org/2000/svg" xmlns:xlink="http://www.w3.org/1999/xlink" x="0px" y="0px"
	 viewBox="0 0 392.566 392.566" style="enable-background:new 0 0 392.566 392.566;" xml:space="preserve">
<path style="fill:#56ACE0;" d="M311.857,285.43h-73.374c-17.39,29.737-31.547,51.523-33.099,53.915
	c-4.331,6.659-13.964,6.659-18.295,0c-1.552-2.392-15.709-24.178-33.099-53.915H80.681l-50.618,85.333h332.412L311.857,285.43z"/>
<path style="fill:#FFFFFF;" d="M102.855,115.216c2.78,49.907,79.968,176.485,93.414,197.948
	c32.582-52.17,93.414-157.543,93.414-197.947c0-51.523-41.891-93.414-93.414-93.414S100.01,63.758,102.855,115.216z"/>
<path style="fill:#FFC10D;" d="M196.269,43.588c-39.499,0-71.628,32.129-71.628,71.628c0,10.667,6.788,30.319,17.648,54.368h60.38
	c6.206,0,11.313,5.042,11.313,11.313c0,6.206-5.042,11.313-11.313,11.313h-49.713c2.651,5.301,5.43,10.796,8.275,16.291h21.204
	c6.271,0,11.313,5.042,11.313,11.313c0,6.271-5.042,11.313-11.313,11.313h-9.18c7.37,13.382,15.063,26.958,23.014,40.339
	c38.012-64.065,71.628-132.267,71.628-156.186C267.897,75.717,235.768,43.588,196.269,43.588z"/>
<g>
	<path style="fill:#194F82;" d="M391.049,376.065l-63.612-107.119c-1.939-3.297-5.56-5.301-9.374-5.301h-66.974
		c28.768-51.006,60.444-114.877,60.444-148.428c0-63.547-51.717-115.2-115.2-115.2s-115.2,51.717-115.2,115.2
		c0,33.552,31.677,97.422,60.444,148.428H74.54c-3.879,0-7.434,2.004-9.374,5.301L1.554,376.065
		c-4.331,7.24,0.905,16.485,9.374,16.485H381.61C390.079,392.55,395.315,383.37,391.049,376.065z M102.855,115.216
		c-2.844-51.459,41.891-93.414,93.414-93.414s93.414,41.891,93.414,93.414c0,40.404-60.768,145.842-93.414,197.948
		C182.823,291.766,105.635,165.123,102.855,115.216z M30.063,370.764L30.063,370.764l50.618-85.333h73.309
		c17.39,29.737,31.547,51.523,33.099,53.915c4.331,6.659,13.964,6.659,18.295,0c1.552-2.392,15.709-24.178,33.099-53.915h73.309
		l50.618,85.333H30.063z"/>
	<path style="fill:#194F82;" d="M140.544,102.416h12.671v20.04c0,5.56-3.556,6.206-4.848,6.206c-2.78,0-5.495-1.422-8.016-4.202
		l-4.978,6.788c3.814,3.879,8.275,5.883,13.382,5.883c4.073,0,13.964-1.487,13.964-15.127V94.271h-22.174
		C140.544,94.271,140.544,102.416,140.544,102.416z"/>
	<path style="fill:#194F82;" d="M257.231,124.978c0.323-7.37-6.012-9.762-8.663-10.279c0.711-0.323,6.271-2.069,6.271-9.18
		c0-11.313-12.218-11.313-15.063-11.313h-16.549v42.602h18.618C247.663,136.808,256.778,135.321,257.231,124.978z M232.665,102.158
		h4.59c2.78,0,4.784,0.323,5.947,0.905c1.164,0.582,1.745,1.939,1.745,3.814c0,1.939-0.646,3.168-1.939,3.685
		c-1.228,0.517-3.232,0.84-5.883,0.84h-4.461L232.665,102.158L232.665,102.158z M232.665,128.727H232.6v-9.762h5.624
		c3.103,0,5.43,0.323,6.853,0.905c1.487,0.646,2.133,1.875,2.133,3.879c0,1.939-0.646,3.232-2.004,3.943
		c-1.293,0.711-3.426,1.034-6.077,1.034H232.665z"/>
	<path style="fill:#194F82;" d="M215.081,115.216c0-8.339-5.883-22.044-22.303-22.044c-14.869,0-22.303,11.83-22.303,22.044
		c0,8.339,5.947,22.044,22.303,22.044C207.582,137.261,215.081,125.43,215.081,115.216z M192.713,128.921
		c-6.465,0-12.606-5.689-12.671-13.705h0.065c0-6.594,4.848-13.705,12.671-13.705c6.594,0,12.671,5.689,12.606,13.705
		C205.384,121.81,200.471,128.921,192.713,128.921z"/>
</g>
<g>
</g>
<g>
</g>
<g>
</g>
<g>
</g>
<g>
</g>
<g>
</g>
<g>
</g>
<g>
</g>
<g>
</g>
<g>
</g>
<g>
</g>
<g>
</g>
<g>
</g>
<g>
</g>
<g>
</g>
</svg>
